<?xml version="1.0" encoding="UTF-8" standalone="no"?>
<!-- Created with Inkscape (http://www.inkscape.org/) -->

<svg
   xmlns:dc="http://purl.org/dc/elements/1.1/"
   xmlns:cc="http://creativecommons.org/ns#"
   xmlns:rdf="http://www.w3.org/1999/02/22-rdf-syntax-ns#"
   xmlns:svg="http://www.w3.org/2000/svg"
   xmlns="http://www.w3.org/2000/svg"
   xmlns:sodipodi="http://sodipodi.sourceforge.net/DTD/sodipodi-0.dtd"
   xmlns:inkscape="http://www.inkscape.org/namespaces/inkscape"
   id="svg2"
   sodipodi:docname="teacher-chalyboard.svg"
   viewBox="0 0 804.6 411.75"
   version="1.1"
   inkscape:version="0.48.1 "
   width="100%"
   height="100%">
  <defs
     id="defs86" />
  <sodipodi:namedview
     id="base"
     fit-margin-left="0"
     inkscape:zoom="1.0536296"
     borderopacity="1.0"
     inkscape:current-layer="layer1"
     inkscape:cx="323.92104"
     inkscape:cy="252.82107"
     inkscape:window-maximized="0"
     showgrid="false"
     fit-margin-right="0"
     inkscape:guide-bbox="true"
     showguides="true"
     bordercolor="#666666"
     inkscape:window-x="1414"
     inkscape:window-y="20"
     fit-margin-bottom="0"
     inkscape:window-width="1680"
     inkscape:pageopacity="0.0"
     inkscape:pageshadow="2"
     pagecolor="#ffffff"
     inkscape:document-units="px"
     inkscape:window-height="1002"
     fit-margin-top="0" />
  <g
     id="layer1"
     inkscape:label="Laag 1"
     inkscape:groupmode="layer"
     transform="translate(-101.43 -527.34)">
    <g
       id="g3215">
      <path
         d="m 651.55887,579.79451 c -48.14705,3.94174 -81.1318,7.2052 -128.22048,15.89139 -23.03367,3.92088 -46.15348,7.49848 -69.29764,10.95519 -13.95183,1.93823 -28.14998,2.53066 -42.30941,3.23047 -44.08917,2.78804 -87.84201,7.87532 -130.94792,15.47865 -0.70021,0.11083 -3.06483,0.27464 -2.74126,0.9245 1.37342,0.28561 2.39531,6.46311 3.61296,5.19671 132.83099,0.13273 263.79416,-27.94412 385.45784,-48.23813 4.67654,2.55541 -2.69213,-5.00471 -15.55128,-3.43927 z m -374.65398,46.42953 c -1.06587,1.07912 0.30802,2.19109 1.33561,3.13786 1.00846,0.78064 2.09333,2.53109 3.3959,2.279 -0.37387,-1.96586 -2.47849,-3.2236 -3.70929,-4.7407 -1.0951,-1.07197 -0.66162,-0.85372 -1.02228,-0.67617 z m -0.95293,0.93588 c 0.13826,-0.0449 -0.47846,-0.31576 0,0 z"
         style="fill:#cccccc"
         inkscape:connector-curvature="0"
         sodipodi:nodetypes="cccccccccccccccc"
         id="path3152" />
      <path
         inkscape:connector-curvature="0"
         style="fill:#b3b3b3"
         sodipodi:nodetypes="ccccc"
         d="m 353.14908,830.54083 -1.81378,83.83004 -12.03152,-11.88532 -0.38032,-73.03144 z"
         id="path3941" />
      <path
         d="m 353.14908,830.54083 0.27385,84.05139 275.4059,-29.85204 0.56589,-97.79463 z"
         inkscape:connector-curvature="0"
         style="fill:#cacaca"
         sodipodi:nodetypes="ccccc"
         id="path3939" />
      <path
         d="m 283.84447,633.05999 -0.68926,210.23084 385.42805,-51.06995 0.68926,-210.23084 c -88.19301,15.61349 -278.2917,49.9317 -385.42805,51.06995 z"
         inkscape:connector-curvature="0"
         style="fill:#b7b7b7"
         sodipodi:nodetypes="ccccc"
         id="path3771" />
      <path
         d="m 664.10389,591.19057 -238.77093,31.3898 0.008,-2.58849 -135.22602,15.26714 2.9443,197.18727 92.48983,-9.19412 38.485,-3.7663 239.42245,-31.46653 c -4.03745,-63.22041 -3.53787,-128.99154 0.64532,-196.82892 z"
         inkscape:connector-curvature="0"
         style="fill:#415541"
         sodipodi:nodetypes="ccccccccc"
         id="rect2998" />
      <path
         d="m 503.12508,696.42471 c -42.79476,1.88793 -53.50981,2.23537 -52.05309,1.68619 3.06882,-1.1561 78.043,-4.66397 87.999,-4.11676 6.38884,0.35088 -2.61549,0.95965 -35.94851,2.43018 z"
         inkscape:connector-curvature="0"
         style="fill:#ffffff"
         id="path3966" />
      <path
         d="m 582.50535,703.01544 c -0.59681,1.49105 -7.93097,10.29842 -11.80239,14.16882 -11.06408,11.06088 -19.0253,15.29075 -37.44115,19.89335 -19.50305,4.87469 -32.3753,6.4807 -52.83897,6.59287 -11.56272,0.0634 -30.87488,-0.64407 -31.08948,-1.13889 -0.0667,-0.15355 6.01464,-0.129 13.51416,0.0546 24.91985,0.60987 42.24878,-0.82558 60.96688,-5.05065 20.06135,-4.52831 31.93137,-9.3338 39.47459,-15.98177 1.96762,-1.73406 6.96303,-6.67093 11.10092,-10.9711 7.15635,-7.43685 8.60005,-8.78289 8.11544,-7.56703 z"
         inkscape:connector-curvature="0"
         style="fill:#cdd2cd"
         id="path3866" />
      <path
         inkscape:connector-curvature="0"
         style="fill:#b7b7b7"
         d="m 319.92355,826.00058 c -13.68643,1.63737 -24.62134,3.09285 -27.81933,3.77975 l 0.74716,2.25462 -6.83708,-0.75668 c -0.24635,0.1173 7.26476,1.01457 7.15428,1.14319 -1.07575,1.25001 5.18896,7.85747 10.47711,11.04333 1.50815,0.90864 0.111,-0.74695 -3.09715,-3.67182 -3.20816,-2.92482 -5.37487,-5.83881 -4.83081,-6.471 1.36202,-1.58264 1.09616,-2.59138 25.73748,-1.86678 28.72831,0.84479 60.00285,-0.63172 92.6497,-4.32508 0.59895,-0.014 1.12194,-0.0222 1.73456,-0.0356 25.87715,-0.56535 66.57473,-4.80156 99.18852,-10.32888 4.10862,-0.69647 10.31446,-1.91676 17.55614,-3.39893 36.04181,-3.86779 69.54822,-9.9132 99.044,-17.89576 23.16577,-6.2711 30.33637,-7.72386 32.28492,-6.52468 0.77838,0.47877 -0.10263,3.7463 -1.95323,7.25778 -1.85054,3.51174 -2.48156,5.4026 -1.41957,4.19582 3.72347,-4.2315 6.96794,-11.94233 5.42911,-12.88893 -0.15834,-0.0974 -0.38375,-0.17968 -0.66664,-0.23557 l 0.79208,-0.20234 -7.20738,0.15519 c -8.87406,0.18723 -72.3805,7.71242 -95.97471,11.37343 -6.49984,1.00871 -22.37382,3.88524 -40.01761,7.20149 -31.32187,3.79391 -46.99937,5.87791 -69.06591,9.79823 -26.74958,1.08144 -56.11258,2.53354 -65.65144,3.2728 -11.98626,0.92839 -33.87608,3.18872 -53.83232,5.45408 -4.98915,0.56624 -9.85599,1.12694 -14.41791,1.67278 z"
         sodipodi:nodetypes="scccccssscsscssscccccsccsss"
         id="path18566" />
      <path
         d="m 587.73641,833.68429 -50.93157,3.65536 c -0.17746,-0.23592 -0.36355,-0.3916 -0.56423,-0.42688 -0.29935,-0.0527 -0.60852,0.14122 -0.92732,0.53354 l -0.0772,0.005 -0.0132,0.11369 c -2.32004,3.13221 -5.01679,17.27759 -6.41235,34.54964 -0.92827,5.98891 -1.17774,12.65305 -0.94497,18.43239 -5.81652,12.38418 66.11832,7.27532 66.22919,5.24288 0.44029,-8.37204 0.36516,-18.29024 0.16491,-21.17986 -1.34831,-18.45482 -4.15991,-33.73877 -6.54022,-36.27702 z"
         inkscape:connector-curvature="0"
         style="fill:#785238"
         sodipodi:nodetypes="ccsccccccccc"
         id="path3943" />
      <path
         d="m 502.40958,741.8415 c -0.86404,-0.0376 -1.73946,0.25875 -2.79365,1.22889 -3.20976,3.63959 -3.30567,9.27581 -1.55008,14.02837 3.7958,8.28935 11.03683,19.49966 17.58736,19.2609 4.90181,6.1706 6.26938,17.55884 16.97448,23.04619 -0.0839,8.79214 0.0982,14.85125 -0.72845,26.24533 -14.25253,26.71233 60.85515,20.88143 58.86239,7.1455 1.70417,-26.88135 -0.63864,-28.94006 -2.57562,-33.48804 2.3342,-1.65151 4.46093,-3.48925 3.1757,-8.38834 0.0758,0.0276 0.15644,0.0458 0.23115,0.0742 1.31109,-9.78305 -5.88978,-20.88902 -16.57557,-21.95833 -8.56196,-0.65183 -17.31007,-0.14656 -25.20412,2.46728 -0.42447,-0.30112 -0.85543,-0.59436 -1.29554,-0.85765 -7.82154,-4.60408 -16.37226,-8.28639 -25.11347,-9.68787 -2.5613,-5.2186 -9.35172,-9.06019 -13.87718,-17.65153 -3.39175,0.30952 -5.21612,-1.38154 -7.11675,-1.46433 z"
         inkscape:connector-curvature="0"
         style="text-indent:0;text-transform:none;block-progression:tb;color:#000000;fill:#008000"
         sodipodi:nodetypes="cccccccccccccccsc"
         id="path3773" />
      <path
         d="m 556.24917,676.36532 c -11.40902,-1.12928 -22.03992,6.72399 -23.54161,17.41435 -1.92379,14.56848 -0.88858,29.57671 0.27661,44.45873 0.7266,7.68972 1.55962,15.50076 4.3457,22.99537 1.39996,3.43314 3.9115,6.76659 7.5123,8.34316 4.12473,1.98025 8.67809,1.97985 12.96018,1.77023 4.44516,-0.0724 9.1823,-0.44484 12.64121,-3.04531 0.63092,-0.48107 -0.25903,0.14702 -0.4928,0.2819 -2.2925,1.38612 -4.98831,2.1554 -7.76319,2.42707 5.56922,-0.74039 10.15332,-4.01803 13.60156,-7.93146 2.00767,-1.61458 4.21149,-3.00903 6.5556,-4.17023 l -4.82893,2.07324 c 1.7481,-0.88907 3.60929,-1.58856 5.32183,-2.53607 -0.71352,0.3571 -1.5081,0.60715 -2.34809,0.62351 1.64485,-1.89426 3.63969,-3.76705 3.9087,-6.44113 0.56509,-0.14209 0.23355,-0.94504 0.62512,-1.26224 1.12307,-2.49432 2.26704,-5.08585 2.2343,-7.9515 0.55953,-2.8446 2.65637,-5.02608 3.13953,-7.90322 0.70161,-2.72437 1.87669,-5.2691 3.34143,-7.62736 2.323,-4.03682 4.76935,-8.23119 5.01427,-13.11289 0.51185,-5.58577 0.40919,-11.26939 0.0699,-16.94283 -0.48669,-4.11838 -1.84586,-8.54654 -5.19979,-11.62475 -3.5399,-3.11089 -8.21944,-4.21456 -12.60039,-5.2365 -8.19202,-2.04817 -16.46238,-3.84147 -24.77259,-4.6023 z"
         inkscape:connector-curvature="0"
         style="fill:#ffd5d5"
         id="path3840" />
      <path
         inkscape:connector-curvature="0"
         style="fill:#ffcc00"
         d="m 564.08226,752.3352 c -6.53034,-0.35525 -12.74285,1.86491 -19.3303,0.85166 -2.09701,-0.37333 -4.24603,-0.6178 -6.25039,-1.51876 2.52229,1.18492 5.32362,6.23549 8.1141,6.34769 5.90268,0.70702 11.78406,2.54638 17.69573,2.49475 2.62815,-0.0944 6.04524,-0.82377 8.44116,-1.63632 1.41987,-0.43115 1.51554,-4.36438 3.04912,-4.3405 0.30126,-0.43167 -0.46933,-0.92982 -0.82384,-0.6588 -3.57679,-0.40043 -7.17272,-0.68003 -10.72192,-1.52899 -0.0578,-0.003 -0.11563,-0.007 -0.17343,-0.0106 z"
         sodipodi:nodetypes="ccccccccccc"
         id="path3817" />
      <path
         d="m 536.04558,698.65589 c -5.32769,1.75991 -5.89834,8.31916 -6.28333,13.27427 0.39813,8.44603 9.854,16.96056 18.10901,14.29614 5.31073,-2.07065 8.63749,-7.68646 8.33369,-13.54862 -4.14181,-0.90157 -8.51365,0.10661 -12.49332,-1.93852 0.89665,-1.86486 4.81436,-2.3344 4.6957,-4.04375 -5.13628,1.50015 -10.45377,-3.26515 -12.19181,-8.08723 l -0.16981,0.0471 z"
         inkscape:connector-curvature="0"
         style="fill:#000000"
         id="path2985" />
      <path
         d="m 568.3311,701.87883 c 5.31266,2.8221 5.83988,9.49095 6.1922,14.51966 -0.45323,8.36105 -9.95873,14.98273 -18.19087,10.67245 -5.29369,-3.12924 -8.58146,-9.40535 -8.23942,-15.20305 4.145,-0.0743 8.50737,1.80576 12.49785,0.55626 -0.88378,-2.04259 -4.79591,-3.29376 -4.66606,-4.9783 5.12308,2.52431 10.46833,-1.17657 12.23685,-5.6486 l 0.16938,0.081 z"
         inkscape:connector-curvature="0"
         style="fill:#000000"
         id="path2988" />
      <path
         inkscape:connector-curvature="0"
         style="fill:#000000"
         d="m 535.95645,725.84152 c -5.31267,-2.8221 -5.83995,-9.49095 -6.19221,-14.51966 0.45324,-8.36104 9.95873,-14.98272 18.19088,-10.67245 5.29368,3.12925 8.58145,9.40536 8.23942,15.20305 -4.14501,0.0743 -8.50738,-1.80576 -12.49785,-0.55626 0.88384,2.0426 4.7959,3.29382 4.66612,4.97831 -5.12308,-2.52431 -10.46834,1.17657 -12.23685,5.6486 l -0.16939,-0.081 z"
         id="path2990" />
      <path
         d="m 568.24197,729.06447 c 5.32769,-1.75992 5.89827,-8.31917 6.28332,-13.27428 -0.39813,-8.44603 -9.85399,-16.96055 -18.10901,-14.29613 -5.31073,2.07064 -8.63749,7.68645 -8.33368,13.54862 4.1418,0.90156 8.51364,-0.10662 12.49331,1.93851 -0.89658,1.86487 -4.81435,2.33447 -4.69563,4.04376 5.13628,-1.50015 10.45377,3.26515 12.19181,8.08723 l 0.16981,-0.0471 z"
         inkscape:connector-curvature="0"
         style="fill:#000000"
         id="path2992" />
      <path
         d="m 543.94973,703.2901 c -5.80905,-0.5799 -10.53328,3.50399 -10.5517,9.12212 -0.0184,5.61799 4.67608,10.64225 10.485,11.22213 5.80905,0.5799 10.53328,-3.50399 10.5517,-9.12212 -3.56015,-0.014 -7.31761,1.20019 -10.51835,-1.05001 1.76918,-2.07507 4.43444,-3.9715 8.13915,-5.66084 -1.99031,-2.54851 -4.96052,-4.19717 -8.1058,-4.51115 z"
         inkscape:connector-curvature="0"
         style="fill:#ffffff"
         sodipodi:nodetypes="ssscccs"
         id="path2994" />
      <path
         d="m 561.63222,705.05528 c -5.80905,-0.5799 -10.53328,3.50399 -10.5517,9.12211 -0.0184,5.618 4.67608,10.64225 10.485,11.22214 5.80905,0.57989 10.53328,-3.50399 10.5517,-9.12212 -6.29698,0.59369 -8.92621,0.40159 -10.51835,-1.05001 2.8578,-3.53541 5.47071,-4.283 8.13915,-5.66084 -1.99031,-2.54851 -4.96052,-4.19717 -8.1058,-4.51115 z"
         inkscape:connector-curvature="0"
         style="fill:#ffffff"
         sodipodi:nodetypes="ssscccs"
         id="path2996" />
      <path
         inkscape:connector-curvature="0"
         style="fill:#ffcc00"
         sodipodi:nodetypes="ccccc"
         d="m 567.65202,670.6354 c -19.7954,-5.47553 -23.1721,1.84691 -30.43833,12.20424 13.95897,-9.87597 17.98148,4.1332 16.26055,7.60001 14.58216,-5.68506 31.44782,-6.65485 44.30353,1.74878 -7.9877,-14.90799 -21.57652,-20.59453 -30.12575,-21.55284 z"
         id="path3842" />
      <path
         inkscape:connector-curvature="0"
         style="fill:#ba9500"
         sodipodi:nodetypes="ccccc"
         d="m 567.65202,670.6354 c -19.7954,-5.47553 -23.1721,1.84691 -30.43833,12.20424 13.95897,-9.87597 20.37392,-0.94155 18.65299,2.52526 14.58216,-5.68507 29.05538,-1.58017 41.91109,6.82353 -7.9877,-14.90799 -21.57652,-20.59453 -30.12575,-21.55284 z"
         id="path3844" />
      <path
         d="m 567.65202,670.6354 c -19.7954,-5.47553 -23.1721,1.84691 -30.43833,12.20424 13.95897,-9.87597 19.19318,-3.12578 17.47225,0.34103 14.58216,-5.68506 30.23612,0.60413 43.09183,9.00782 -7.9877,-14.90798 -21.57652,-20.59453 -30.12575,-21.55283 z"
         inkscape:connector-curvature="0"
         style="fill:#ffcc00"
         sodipodi:nodetypes="ccccc"
         id="path2998" />
      <path
         d="m 564.08226,752.3352 c -6.53034,-0.35525 -12.74285,1.86491 -19.3303,0.85166 -2.09701,-0.37333 -4.24603,-0.6178 -6.25039,-1.51876 2.52229,1.18492 4.98603,2.91094 7.77592,3.02308 5.90268,0.70701 11.78406,2.54637 17.69573,2.49475 2.62816,-0.0944 5.00062,-1.10128 7.3968,-1.9138 1.41986,-0.43115 2.89775,-0.76233 4.4314,-0.73844 0.30126,-0.43167 -0.46933,-0.92981 -0.82384,-0.65879 -3.57679,-0.40043 -7.17273,-0.68004 -10.72193,-1.529 -0.0578,-0.003 -0.11562,-0.007 -0.17342,-0.0106 z"
         inkscape:connector-curvature="0"
         style="fill:#ffdc49"
         id="path3027" />
      <path
         d="m 591.36022,709.67362 c 0.28274,-0.0968 -4.52297,0.38245 -5.32509,2.33805 2.20539,0.56918 4.45456,-0.3966 6.61871,0.61489 2.38318,1.64346 2.43584,5.54645 0.15769,6.86325 -2.09937,1.67494 -3.54151,3.99422 -5.49151,5.82002 0.38649,0.68542 1.20913,0.33795 1.79633,0.39174 5.98319,-0.4707 3.57786,-1.97337 4.75782,-2.8071 0.96878,-2.09497 2.85797,-3.74844 3.0823,-6.2019 -0.10923,-1.90766 -0.79556,-3.78146 -1.46566,-5.60251 -1.89144,-1.33712 -6.83755,-2.59829 -4.13042,-1.41601 z"
         inkscape:connector-curvature="0"
         sodipodi:nodetypes="cccccccccc"
         style="fill:#000000"
         id="path3037" />
      <path
         d="m 555.53831,706.46015 c 0.11305,0.0112 0.15563,0.0491 0.24206,0.0721 -4.23191,4.59076 -7.60735,10.11581 -11.98786,13.92763 -5.68832,3.6766 -6.28484,15.14686 -0.86972,20.58775 l 0.0698,0.0685 0.0752,0.0554 c 2.47281,1.71578 5.03492,1.92339 7.46149,1.99039 1.91207,0.0528 3.74807,0.0447 5.47959,0.45804 -3.27484,3.42672 -8.00297,2.2637 -11.9637,0.99862 -4.72381,-1.50878 -7.13703,-5.61026 -7.12621,-16.26036 2.45067,-8.96823 8.38493,-14.27953 13.38527,-17.8398 2.02585,-1.44232 0.49183,-4.0339 3.2202,-4.10184 l 2e-5,-0.007 c 0.78491,0.11636 1.4981,-5.8e-4 2.01354,0.0504 z"
         inkscape:connector-curvature="0"
         style="text-indent:0;text-transform:none;block-progression:tb;color:#000000;fill:#000000"
         sodipodi:nodetypes="ccccccscscscccc"
         id="path3039" />
      <path
         inkscape:connector-curvature="0"
         style="text-indent:0;text-transform:none;block-progression:tb;color:#000000;fill:#ffd5d5"
         sodipodi:nodetypes="ccccccsccc"
         d="m 555.53831,706.46015 0.24206,0.0721 c -4.23191,4.59076 -7.60735,10.11581 -11.98786,13.92763 -5.68832,3.6766 -6.28484,15.14686 -0.86972,20.58775 l 0.0698,0.0685 0.0752,0.0554 c 2.47281,1.71578 5.03492,1.92339 7.46149,1.99039 1.91207,0.0528 3.74807,0.0447 5.47959,0.45804 -4.89712,-14.03887 -3.71976,-25.96047 -0.47043,-37.15931 z"
         id="path3846" />
      <path
         d="m 480.54592,730.16253 c -5.59145,-2.13198 -11.58178,-5.2437 -14.44839,-7.5052 -5.25895,-4.14902 -7.63528,-7.78061 -9.27634,-14.17503 -0.42075,-1.63956 -1.53061,-4.36461 -2.4664,-6.05559 -2.53002,-4.57177 -2.19884,-5.8449 0.45845,-1.76269 1.41348,2.1714 2.60197,4.83407 3.38534,7.58421 1.65251,5.8017 2.23678,6.94845 5.12689,10.06323 4.99856,5.38701 14.52012,10.06163 27.20502,13.35537 l 4.13838,1.07463 -4.87132,-0.45438 c -3.60285,-0.33603 -6.01182,-0.88926 -9.25138,-2.12446 z"
         inkscape:connector-curvature="0"
         style="fill:#cdd2cd"
         id="path4006" />
      <path
         d="m 493.11523,738.12367 -4.19815,-5.20743 c 0.88823,-5.15765 3.10557,-3.46569 5.12764,-2.78014 l 3.73881,7.55605 z"
         inkscape:connector-curvature="0"
         style="fill:#ffffff"
         sodipodi:nodetypes="ccccc"
         id="path3931" />
      <path
         inkscape:connector-curvature="0"
         style="text-indent:0;text-transform:none;block-progression:tb;color:#000000;fill:#ffd5d5"
         sodipodi:nodetypes="cccccccc"
         d="m 495.41474,731.99639 c -6.62777,1.55006 -7.86784,10.11376 -5.07878,15.96379 1.01416,4.42427 7.17791,6.84531 10.16926,3.6346 2.95772,-2.04771 6.7937,-4.09047 7.53361,-7.88598 -0.97765,-5.86768 -6.58971,-11.44955 -12.62409,-11.71273 z"
         id="path3777" />
      <path
         d="m 314.14031,833.95513 c -0.73562,-0.27289 -1.21201,-1.26755 -0.85238,-1.9432 -3.12263,-0.17342 -6.04776,0.89596 -9.13345,1.03692 -6.11604,0.64742 -12.2669,1.10837 -18.40803,1.62317 -0.47117,0.8514 1.03046,1.53905 1.63365,1.06644 8.92456,0.0998 17.83841,-0.30471 26.51586,-1.70531 -0.0701,-0.0341 0.49159,-0.0344 0.24412,-0.078 z"
         inkscape:connector-curvature="0"
         style="fill:#b7b7b7"
         id="path3922" />
      <path
         d="m 534.99086,837.60458 c -1.99971,-1.92212 -2.42984,-2.10993 -2.69178,-1.17524 -0.42382,1.51285 -2.77916,-0.36962 -3.31289,-2.64778 -0.71158,-3.03712 2.41417,-19.40885 5.03084,-26.34989 1.34437,-3.56602 2.31773,-6.64267 2.16318,-6.83741 -0.15465,-0.19453 -1.31577,-0.0938 -2.58026,0.22394 -2.44014,0.61309 -4.08426,-0.37645 -6.70323,-4.03446 -1.26833,-1.77142 -7.45058,-11.47981 -7.36966,-9.54397 0.0543,1.29129 -0.87874,-1.17447 -2.41544,-6.38245 -2.78743,-9.44711 -2.8693,-11.55135 -0.1907,-4.90176 4.6051,11.43204 12.53075,23.29589 16.37788,21.66931 1.38572,-0.58584 3.63273,-2.22113 4.99342,-3.63398 1.36069,-1.41285 2.83288,-2.45012 3.27162,-2.30508 1.15265,0.38105 1.57644,2.86154 0.52431,3.06924 -1.62328,0.32041 -3.37249,7.07014 -2.6412,10.19144 1.40388,5.99193 1.09608,33.09242 -0.3914,34.46064 -1.09429,1.00631 -1.18416,0.96646 -4.06486,-1.80247 z"
         inkscape:connector-curvature="0"
         sodipodi:nodetypes="scsscssccssscsscs"
         style="fill:#005a00"
         id="path3986" />
      <path
         d="m 352.79263,833.98143 c -1.92817,3.56763 -1.28875,9.56389 -1.79161,14.33763 -1.09676,20.96774 -0.55041,42.26133 0.40552,63.38025 0.69949,2.74941 3.0275,0.9785 2.52548,-2.03298 1.29513,-19.57429 0.98905,-39.52075 1.15938,-59.31478 -0.0513,-5.39347 -0.21871,-11.11391 -1.64468,-15.93584 -0.17702,-0.27773 -0.43517,-0.59131 -0.6542,-0.43454 z"
         inkscape:connector-curvature="0"
         style="fill:#9d9d9d"
         id="path3981" />
      <path
         d="m 628.57268,795.28919 c -0.17239,-0.009 -0.34932,-0.004 -0.50134,-0.005 -1.08847,-0.0735 -0.35088,1.68183 -0.44507,2.43719 0.72045,14.91078 1.42911,29.84303 3.13135,44.74954 0.79361,0.72083 1.59337,-0.91293 0.93086,-1.61248 -0.50048,-5.75829 -0.94889,-11.52213 -1.29314,-17.2854 0.0441,0.29499 0.0805,0.59008 0.12566,0.88508 0.27378,0.52491 -0.20143,1.55952 0.84291,1.69323 1.15221,-0.31719 0.0945,-1.49621 0.27715,-2.19334 -0.91339,-6.91409 -1.70215,-13.84228 -1.88605,-20.72109 -0.003,-0.10408 -0.009,-0.20876 -0.0118,-0.3128 0.006,-2.28862 0.0418,-4.57281 0.11247,-6.8557 -0.22462,-0.62085 -0.76583,-0.7522 -1.28297,-0.77962 z"
         inkscape:connector-curvature="0"
         style="fill:#9d9d9d"
         id="path3964" />
      <path
         d="m 324.4308,627.20088 c -13.44209,1.60124 -24.18151,3.02489 -27.32215,3.6972 l -6.82088,1.45524 0.83996,0.0112 c -0.24195,0.11488 -0.4195,0.24164 -0.5282,0.36763 -1.05652,1.22461 5.09628,7.70064 10.28963,10.8233 1.48124,0.89068 0.109,-0.73187 -3.04184,-3.59853 -3.15085,-2.86665 -5.27887,-5.72241 -4.7445,-6.34171 1.3377,-1.55044 -20.51647,4.6952 3.68456,5.41055 28.21515,0.83435 88.08038,-7.08509 120.14083,-10.69651 0.58824,-0.0136 1.10187,-0.0215 1.70355,-0.0345 25.4147,-0.54808 65.38906,-4.68947 97.41633,-10.09798 4.03517,-0.68153 10.13067,-1.87567 17.24265,-3.32645 35.39807,-3.78122 68.31011,-9.69695 97.27131,-17.51278 22.75178,-6.13959 29.79398,-7.56115 31.70809,-6.38612 0.76448,0.46929 -0.10075,3.67082 -1.91822,7.1111 -1.81743,3.44054 -2.43719,5.29316 -1.39416,4.11096 3.65689,-4.14544 6.8434,-11.69971 5.332,-12.62804 -0.15552,-0.0955 -0.3769,-0.17613 -0.65474,-0.23097 l 0.77787,-0.19808 -7.07906,0.15033 c -8.71579,0.1814 -71.08394,7.54084 -94.25456,11.12243 -6.38371,0.9869 -21.97432,3.8018 -39.30267,7.04694 -30.76216,3.7106 -46.15947,5.74878 -67.83433,9.5852 -26.27146,1.05363 -55.11008,2.46985 -64.4789,3.19177 -11.77193,0.907 -33.27082,3.11702 -52.87065,5.33193 -4.90003,0.55364 -9.68007,1.10198 -14.16055,1.63574 z"
         inkscape:connector-curvature="0"
         style="fill:#b7b7b7"
         sodipodi:nodetypes="scccscssscsscscscccccsccsss"
         id="path18558" />
      <path
         d="m 460.47572,725.67323 c 16.11435,-14.15591 23.08934,-22.68803 37.79453,-46.23372 11.12137,-17.80751 15.43983,-22.75382 25.44201,-29.14208 6.54652,-4.18143 12.66607,-7.05125 19.81581,-9.2926 7.53243,-2.36169 6.82772,-1.75324 -1.82969,1.58055 -4.30376,1.65725 -10.45094,4.61061 -13.6609,6.5629 -11.32198,6.88766 -16.66491,12.83994 -28.46514,31.71575 -13.53321,21.64689 -22.12623,32.45341 -34.59441,43.50682 -8.15667,7.23083 -15.40938,12.67462 -16.71344,12.54444 -0.28971,-0.0289 5.20536,-5.0879 12.21091,-11.24222 z"
         inkscape:connector-curvature="0"
         style="fill:#cdd2cd"
         id="path3870" />
      <path
         d="m 451.43938,762.44605 c -1.45022,-1.81218 -2.8666,-25.0273 -2.39082,-39.18168 1.11077,-33.04755 2.94128,-48.88052 7.48626,-64.75648 2.88649,-10.08151 3.64851,-11.22696 1.31958,-1.98441 -3.33745,13.24533 -5.08446,26.09854 -6.27278,46.14893 -1.00542,16.96467 -1.21797,31.99657 -0.59266,41.90302 0.88006,13.94146 0.99631,18.54979 0.45072,17.86741 z"
         inkscape:connector-curvature="0"
         style="fill:#cdd2cd"
         id="path3852" />
      <path
         d="m 559.88844,853.5481 c -2.48262,0.0632 -5.73303,15.64278 -7.3145,35.21373 -0.27655,3.42263 -0.39128,6.53981 -0.53315,9.69629 0.10554,0.003 0.20269,0.0151 0.30847,0.018 2.09907,0.0635 4.24278,0.10031 6.40157,0.10241 0.67621,6.2e-4 1.32825,-0.0379 2.00558,-0.0426 0.12724,-1.14169 0.29302,-2.11019 0.40931,-3.29408 0.0946,1.16746 0.24374,2.14487 0.34919,3.28033 2.96106,-0.0291 5.91634,-0.0842 8.76794,-0.19807 -0.0433,-0.79446 -0.0656,-1.54934 -0.0953,-2.30949 0.0425,-0.004 0.0861,-0.009 0.1286,-0.0127 0.10109,-0.008 0.19481,-9.4e-4 0.29569,-0.009 0,-23.05094 -1.20751,-40.44302 -3.19596,-40.73474 -0.70491,-0.10345 -1.4104,1.99444 -2.07553,5.70893 -0.85383,-2.8746 -1.7174,-4.52457 -2.50471,-4.54335 -0.42177,-0.0101 -0.79916,0.45544 -1.12274,1.31905 -0.41256,-2.54747 -0.97994,-4.0546 -1.70887,-4.18278 -0.039,-0.007 -0.0762,-0.0128 -0.11566,-0.0115 z"
         inkscape:connector-curvature="0"
         style="fill:#352519"
         id="path3963" />
      <path
         d="m 339.07122,839.73236 c -1.28365,3.28188 -0.92766,8.54284 -1.15802,12.83433 -0.54737,12.04922 -0.45388,24.30289 -0.18983,36.46613 0.0977,3.88846 0.21943,7.77503 0.36849,11.65709 0.70566,1.42312 2.10055,0.46599 1.98122,-2.15218 0.0632,-7.69892 0.32705,-15.39787 0.42726,-23.10668 0.16116,-10.85137 0.22449,-21.80637 -0.35185,-32.63814 -0.16101,-1.25229 -0.46012,-3.11223 -1.07731,-3.06088 z"
         inkscape:connector-curvature="0"
         style="fill:#9d9d9d"
         id="path3985" />
      <path
         inkscape:connector-curvature="0"
         style="fill:#d1d1d1"
         d="m 665.93872,583.77403 c -47.45388,3.67367 -94.13107,11.20013 -140.54096,19.43752 -22.7015,3.71413 -45.48853,7.09812 -68.29928,10.36543 -13.75089,1.82979 -27.74436,2.36524 -41.69974,3.00391 -43.45414,2.57438 -86.57687,7.36011 -129.06278,14.56572 -0.69009,0.10488 -3.02068,0.25666 -2.70172,0.88223 1.35365,0.27791 2.36134,6.21969 3.56136,5.00507 6.1248,-1.53029 13.25963,-4.94533 19.61274,-5.15958 27.88124,0.37927 53.40874,-4.77912 80.90446,-7.38585 15.16391,-1.56606 30.42185,-2.61206 45.65293,-3.80878 23.90951,-1.90128 42.23114,-3.39041 65.58811,-7.79364 25.14289,-4.2502 51.99123,-4.66687 77.11284,-8.98522 18.16003,-4.63959 56.11539,-10.93761 80.83272,-17.28687 2.43029,-0.47121 4.89814,-0.83335 7.41112,-0.91897 2.18859,2.59562 -0.0282,5.51409 -1.04912,7.807 -0.44479,0.82768 -2.29847,4.75703 -0.68132,3.04909 2.80402,-2.92348 4.4716,-6.96301 4.90616,-11.10529 -0.0138,-0.82349 -0.55226,-1.89628 -1.54127,-1.67109 z m -383.42578,48.20146 c -1.05049,1.03496 0.30376,2.10736 1.31665,3.0201 0.99403,0.75298 2.06341,2.43851 3.34718,2.19937 -0.36863,-1.89096 -2.44305,-3.10529 -3.65625,-4.56684 -1.0794,-1.03325 -0.65215,-0.82242 -1.00758,-0.65256 z m -0.93913,0.89745 c 0.13626,-0.0428 -0.4716,-0.30474 0,0 z m 5.91914,14.53448 c -0.56913,0.26093 0.51236,0.21791 0,0 z"
         sodipodi:nodetypes="ccccccccccccccccccccccccccc"
         id="path3149" />
      <path
         d="m 348.80404,683.8871 c -2.12766,1.22773 -2.88545,7.06244 -3.00818,11.84047 -0.31149,8.18747 -1.15656,16.64016 -0.2074,24.81753 0.45955,-9.01099 0.70024,-18.58952 2.67702,-26.42302 0.73691,-2.28591 2.02228,-4.64194 1.64121,-7.99388 -0.17786,-1.12534 -0.55497,-2.3436 -1.10259,-2.24168 z"
         inkscape:connector-curvature="0"
         style="fill:#ffffff"
         id="path3955" />
      <path
         inkscape:connector-curvature="0"
         style="fill:#ffffff"
         d="m 398.6843,685.84341 c -3.29755,-2.47633 -10.96627,-2.88052 -16.82071,-2.60659 -10.11784,0.34634 -21.0119,0.0679 -30.03998,1.94492 11.2357,-0.23934 22.96676,-0.79484 34.08341,0.91342 3.38097,0.69292 7.31543,2.04604 11.02295,1.28628 1.2019,-0.31571 2.34516,-0.8817 1.75401,-1.53807 z"
         id="path3959" />
      <path
         inkscape:connector-curvature="0"
         style="fill:#ffffff"
         d="m 343.61394,719.50322 c 2.53665,2.09152 11.06074,2.67135 17.85348,2.64799 11.67758,0.0612 23.93111,0.64834 35.11917,-0.55161 -12.89634,-0.18421 -26.51115,-0.13207 -38.31739,-1.87059 -3.5057,-0.66745 -7.31727,-1.88161 -11.90635,-1.39772 -1.52172,0.21241 -3.09946,0.62703 -2.74885,1.17194 z"
         id="path3961" />
      <path
         inkscape:connector-curvature="0"
         style="fill:#ffffff"
         d="m 397.95284,686.46951 c -2.12766,1.22773 -2.88545,7.06245 -3.00819,11.84047 -0.31149,8.18747 -1.15655,16.64016 -0.20739,24.81753 0.45955,-9.01098 0.70023,-18.58952 2.67702,-26.42302 0.73691,-2.28591 2.02228,-4.64194 1.64121,-7.99388 -0.17786,-1.12534 -0.55497,-2.3436 -1.1026,-2.24167 z"
         id="path3965" />
      <path
         d="m 374.05313,670.08832 c -2.41756,-0.65259 -6.99229,1.88951 -10.37038,4.27187 -5.86334,4.02092 -12.30335,7.8565 -17.22822,12.63287 6.53927,-4.35499 13.30722,-9.13381 20.15802,-11.96754 2.11743,-0.73049 4.68868,-1.16607 6.71302,-3.11929 0.64276,-0.68578 1.20219,-1.53956 0.72716,-1.81763 z"
         inkscape:connector-curvature="0"
         style="fill:#ffffff"
         id="path3967" />
      <path
         inkscape:connector-curvature="0"
         style="fill:#ffffff"
         d="m 413.79996,675.95279 c -7.01372,1.47689 -11.34713,7.40884 -16.97579,11.1213 -0.52949,0.59584 -3.64817,2.3231 -1.59578,2.20334 2.90861,-1.05545 5.02717,-3.4412 7.69647,-4.92254 3.54239,-2.43574 8.19829,-3.24006 11.31788,-6.23102 0.58503,-0.63735 1.42211,-2.80677 -0.44297,-2.1711 z m -21.70407,15.1295 c -0.55847,0.44769 -3.31722,2.76881 -1.705,2.14557 0.74985,-0.45171 1.57169,-1.47141 1.705,-2.14557 z"
         id="path3969" />
      <path
         d="m 415.11426,672.36181 c -3.29756,-2.47632 -10.96628,-2.88052 -16.82072,-2.60658 -10.11784,0.34633 -21.01189,0.0679 -30.03998,1.94491 11.23571,-0.23934 22.96676,-0.79484 34.08341,0.91342 3.38097,0.69292 7.31544,2.04605 11.02296,1.28628 1.20189,-0.31571 2.34515,-0.8817 1.754,-1.53807 z"
         inkscape:connector-curvature="0"
         style="fill:#ffffff"
         id="path3971" />
      <path
         d="m 411.42051,710.43829 c -1.81987,-0.56349 -5.26562,1.87668 -7.81051,4.14769 -4.417,3.83568 -9.26798,7.50894 -12.97872,12.02977 4.92623,-4.15765 10.02479,-8.71252 15.18464,-11.46388 1.59475,-0.71529 3.53093,-1.16475 5.05645,-3.0135 0.48434,-0.64793 0.90603,-1.45041 0.54857,-1.70017 z"
         inkscape:connector-curvature="0"
         style="fill:#ffffff"
         id="path3973" />
      <path
         d="m 416.01955,680.29788 c -2.12767,1.22773 -2.88546,7.06244 -3.00819,11.84047 -0.31149,8.18747 -1.15656,16.64016 -0.2074,24.81753 0.45955,-9.01098 0.70024,-18.58952 2.67703,-26.42302 0.73691,-2.28591 2.02228,-4.64194 1.64121,-7.99388 -0.17787,-1.12534 -0.55497,-2.3436 -1.1026,-2.24168 z"
         inkscape:connector-curvature="0"
         style="fill:#ffffff"
         id="path3975" />
      <path
         id="path3178"
         d="m 588.87263,798.28027 c -4.35013,0.97351 -7.86813,2.02456 -12.20592,-0.66688 5.09457,4.3288 7.96432,2.96737 12.19779,3.14818 z"
         sodipodi:nodetypes="cccc"
         style="fill:#005a00"
         inkscape:connector-curvature="0" />
    </g>
  </g>
  <metadata
     id="metadata84">
    <rdf:RDF>
      <cc:Work>
        <dc:format>image/svg+xml</dc:format>
        <dc:type
           rdf:resource="http://purl.org/dc/dcmitype/StillImage" />
        <cc:license
           rdf:resource="http://creativecommons.org/licenses/publicdomain/" />
        <dc:publisher>
          <cc:Agent
             rdf:about="http://openclipart.org/">
            <dc:title>Openclipart</dc:title>
          </cc:Agent>
        </dc:publisher>
        <dc:title></dc:title>
      </cc:Work>
      <cc:License
         rdf:about="http://creativecommons.org/licenses/publicdomain/">
        <cc:permits
           rdf:resource="http://creativecommons.org/ns#Reproduction" />
        <cc:permits
           rdf:resource="http://creativecommons.org/ns#Distribution" />
        <cc:permits
           rdf:resource="http://creativecommons.org/ns#DerivativeWorks" />
      </cc:License>
    </rdf:RDF>
  </metadata>
</svg>
